<svg width="72" height="72" viewBox="0 0 72 72" fill="none" xmlns="http://www.w3.org/2000/svg">
<g clip-path="url(#clip0_1279_4283)">
<path d="M14.484 63L14.424 63.06L14.361 63H8.976C8.18644 62.9992 7.42949 62.685 6.87147 62.1264C6.31345 61.5678 6 60.8106 6 60.021V11.979C6.00549 11.1911 6.3207 10.4371 6.87754 9.87965C7.43438 9.32225 8.18814 9.00628 8.976 9H63.024C64.668 9 66 10.335 66 11.979V60.021C65.9945 60.8089 65.6793 61.5629 65.1225 62.1203C64.5656 62.6777 63.8119 62.9937 63.024 63H14.484ZM60 45V15H12V57L42 27L60 45ZM60 53.484L42 35.484L20.484 57H60V53.484ZM24 33C22.4087 33 20.8826 32.3679 19.7574 31.2426C18.6321 30.1174 18 28.5913 18 27C18 25.4087 18.6321 23.8826 19.7574 22.7574C20.8826 21.6321 22.4087 21 24 21C25.5913 21 27.1174 21.6321 28.2426 22.7574C29.3679 23.8826 30 25.4087 30 27C30 28.5913 29.3679 30.1174 28.2426 31.2426C27.1174 32.3679 25.5913 33 24 33Z" fill="#ABB0BD"/>
</g>
<defs>
<clipPath id="clip0_1279_4283">
<rect width="72" height="72" fill="white"/>
</clipPath>
</defs>
</svg>
