<svg width="24" height="24" viewBox="0 0 24 24" fill="none" xmlns="http://www.w3.org/2000/svg">
<path fill-rule="evenodd" clip-rule="evenodd" d="M16 2.99475H7.99997C5.23855 2.99475 2.99997 5.22938 2.99997 7.98593V15.9718C2.99997 18.7283 5.23855 20.963 7.99997 20.963H16C18.7614 20.963 21 18.7283 21 15.9718V7.98593C21 5.22938 18.7614 2.99475 16 2.99475ZM19.25 15.9718C19.2445 17.7612 17.7926 19.2106 16 19.2161H7.99997C6.20732 19.2106 4.75546 17.7612 4.74997 15.9718V7.98593C4.75546 6.19644 6.20732 4.74714 7.99997 4.74166H16C17.7926 4.74714 19.2445 6.19644 19.25 7.98593V15.9718ZM16.75 8.23549C17.3023 8.23549 17.75 7.78856 17.75 7.23725C17.75 6.68595 17.3023 6.23902 16.75 6.23902C16.1977 6.23902 15.75 6.68595 15.75 7.23725C15.75 7.78856 16.1977 8.23549 16.75 8.23549ZM12 7.48681C9.51468 7.48681 7.49997 9.49798 7.49997 11.9789C7.49997 14.4598 9.51468 16.4709 12 16.4709C14.4853 16.4709 16.5 14.4598 16.5 11.9789C16.5027 10.7867 16.0294 9.64257 15.1849 8.79957C14.3404 7.95657 13.1943 7.48416 12 7.48681ZM9.24996 11.9789C9.24996 13.495 10.4812 14.724 12 14.724C13.5188 14.724 14.75 13.495 14.75 11.9789C14.75 10.4628 13.5188 9.23372 12 9.23372C10.4812 9.23372 9.24996 10.4628 9.24996 11.9789Z" fill="#070F2E"/>
</svg>
